<?xml version="1.0" standalone="no"?>
<!DOCTYPE svg PUBLIC "-//W3C//DTD SVG 20010904//EN"
 "http://www.w3.org/TR/2001/REC-SVG-20010904/DTD/svg10.dtd">
<svg version="1.0" xmlns="http://www.w3.org/2000/svg"
 width="20.000000pt" height="20.000000pt" viewBox="0 0 245.000000 246.000000"
 preserveAspectRatio="xMidYMid meet">

<g transform="translate(0.000000,246.000000) scale(0.100000,-0.100000)"
fill="#000000" stroke="none">
<path d="M1106 2449 c-154 -16 -293 -55 -410 -116 -39 -20 -83 -43 -98 -50
-16 -8 -28 -19 -28 -24 0 -5 -4 -8 -9 -7 -35 10 -274 -223 -353 -343 -180
-273 -241 -578 -182 -908 43 -239 156 -452 334 -631 163 -162 303 -247 530
-318 130 -41 383 -56 524 -32 141 24 310 78 328 104 4 6 8 8 8 3 0 -14 146 70
214 123 61 48 147 129 189 179 382 447 395 1105 32 1561 -213 269 -494 421
-847 459 -107 12 -118 12 -232 0z m635 -591 c87 -75 169 -175 169 -205 0 -17
-24 -51 -77 -109 -43 -46 -82 -84 -87 -84 -14 0 -286 272 -286 286 0 6 36 45
80 87 101 97 116 99 201 25z m-216 -321 c74 -73 135 -140 135 -148 0 -9 -183
-201 -406 -427 l-406 -412 -149 0 -149 0 0 147 0 148 412 412 c227 227 416
413 420 413 4 0 68 -60 143 -133z"/>
</g>
</svg>
