<?xml version="1.0"?>
<svg xmlns="http://www.w3.org/2000/svg" xmlns:xlink="http://www.w3.org/1999/xlink" xmlns:svgjs="http://svgjs.com/svgjs" id="SvgjsSvg1001" width="288" height="288" version="1.1" fill="#b9bbbe">
  <defs id="SvgjsDefs1002"/>
  <g id="SvgjsG1008" transform="matrix(1,0,0,1,0,0)">
    <svg xmlns="http://www.w3.org/2000/svg" width="20" height="20" version="1.0" viewBox="0 0 1021 1000">
      <path d="M4945 10234 c-22 -2 -132 -13 -245 -24 -638 -63 -1160 -194 -1625-408 -183 -84 -636 -319 -662 -344 -13 -12 -29 -34 -36 -47 -9 -19 -23 -27 -55 -33 -115 -19 -394 -250 -792 -655 -511 -519 -746 -842 -1011 -1388 -446 -919 -592 -1908 -438 -2970 178 -1233 763 -2274 1769 -3145 493 -427 993 -707 1685 -943 226 -77 387 -118 610 -156 498 -85 1254 -105 1675 -45 523 75 1314 315 1425 433 23 23 34 28 59 24 36 -5 137 42 346 162 416 238 752 504 1140 901 625 640 1090 1514 1289 2420 75 343 109 636 118 999 31 1391 -478 2679 -1460 3691 -722 745 -1589 1209 -2647 1418 -370 73 -959 129 -1145 110z m2023 -2288 c92 -33 256 -163 475 -376 292 -284 517 -581 517 -684 0 -84 -155 -288 -450 -590 -74 -76 -157 -156 -183 -178 l-48 -40 -39 27 c-121 84 -982 941 -1118 1114 l-42 53 17 30 c26 44 248 273 403 415 244 224 343 273 468 229z m-1089 -1087 c404 -363 1041 -1018 1041 -1069 0 -22 -209 -252 -594 -655 -298 -312 -448 -465 -1670 -1707 l-1119 -1138 -624 0 -623 0 0 619 0 619 1373 1368 c1327 1323 2079 2064 2096 2064 4 0 58 -46 120 -101z" transform="matrix(.1 0 0 -.1 0 1025)" fill="#b9bbbe" class="color000 svgShape"/>
    </svg>
  </g>
</svg>
