<?xml version="1.0" standalone="no"?>
<!DOCTYPE svg PUBLIC "-//W3C//DTD SVG 20010904//EN"
 "http://www.w3.org/TR/2001/REC-SVG-20010904/DTD/svg10.dtd">
<svg version="1.0" xmlns="http://www.w3.org/2000/svg"
 width="256.000000pt" height="256.000000pt" viewBox="0 0 256.000000 256.000000"
 preserveAspectRatio="xMidYMid meet">

<g transform="translate(0.000000,256.000000) scale(0.100000,-0.100000)"
fill="#000000" stroke="none">
<path d="M1090 2505 c-102 -16 -229 -55 -327 -100 -250 -115 -493 -358 -608
-608 -179 -391 -146 -830 91 -1194 74 -115 242 -283 357 -357 364 -237 803
-270 1194 -91 250 115 493 358 608 608 152 330 152 704 0 1034 -115 250 -358
493 -608 608 -220 101 -473 136 -707 100z m345 -75 c769 -110 1214 -905 906
-1619 -282 -654 -1107 -894 -1708 -495 -603 399 -688 1270 -173 1784 254 255
624 380 975 330z"/>
<path d="M1636 1945 c-42 -15 -53 -25 -599 -572 l-348 -349 -50 -213 c-28
-117 -48 -215 -46 -218 3 -2 92 16 198 41 107 25 202 46 211 48 21 4 914 892
933 928 25 47 28 95 10 155 -22 79 -99 157 -175 179 -64 19 -83 19 -134 1z
m147 -91 c110 -75 126 -175 40 -256 l-29 -28 -112 113 -112 113 32 31 c18 16
42 35 53 41 35 20 88 14 128 -14z m-75 -371 l-32 -33 -113 112 -113 112 32 33
32 33 113 -112 113 -112 -32 -33z m-203 17 l110 -110 -303 -303 -302 -302
-112 113 -113 112 300 300 c165 165 302 300 305 300 3 0 55 -50 115 -110z
m-593 -751 c-10 -10 -202 -52 -209 -46 -5 6 35 194 44 211 3 4 43 -29 89 -75
46 -46 80 -86 76 -90z"/>
</g>
</svg>
